<svg width="40" height="40" viewBox="0 0 40 40" fill="none" xmlns="http://www.w3.org/2000/svg">
<g clip-path="url(#clip0_1771_78)">
<rect width="40" height="40" fill="#0056FF"/>
<path fill-rule="evenodd" clip-rule="evenodd" d="M16.3962 23.834C16.0242 24.005 15.5008 24.0915 14.8306 24.0915H11.0792V20.1894H14.8838C15.5451 20.1953 16.0611 20.2785 16.4282 20.437C17.0854 20.7227 17.4116 21.2448 17.4116 22.0074C17.4116 22.9069 17.0738 23.5136 16.3962 23.834ZM11.0792 14.54H14.443C15.1821 14.54 15.7908 14.6167 16.2699 14.7687C16.8227 14.9888 17.0991 15.4382 17.0991 16.1216C17.0991 16.7341 16.8889 17.1626 16.4712 17.405C16.0508 17.6474 15.5056 17.7686 14.8368 17.7686H11.0792V14.54ZM18.2852 18.7795C19.0727 19.052 19.6664 19.4818 20.0711 20.0708C20.471 20.6585 20.6724 21.3739 20.6724 22.2151C20.6724 23.0825 20.4431 23.8608 19.9824 24.5481C19.6917 25.0034 19.3273 25.388 18.8891 25.6992C18.3971 26.0576 17.8163 26.3006 17.1441 26.4343C16.4726 26.5666 15.7465 26.6308 14.9616 26.6308H8V12H15.466C17.3502 12.0262 18.6837 12.5457 19.4699 13.5586C19.9415 14.181 20.1783 14.9246 20.1783 15.792C20.1783 16.6837 19.9415 17.4037 19.4638 17.9468C19.1962 18.2501 18.8038 18.5286 18.2852 18.7795ZM23.9748 14.5027V12.682H30.5952V14.5027H23.9748ZM31.9842 17.632C32.4565 18.2754 32.7595 19.0216 32.8973 19.8693C32.9785 20.3646 33.0106 21.0833 32.997 22.0176H24.6731C24.723 23.1019 25.1167 23.8631 25.8702 24.2995C26.3253 24.5707 26.874 24.707 27.5176 24.707C28.1953 24.707 28.7494 24.5412 29.1739 24.211C29.408 24.0315 29.6134 23.7839 29.7901 23.4668H32.84C32.7595 24.1069 32.3889 24.76 31.7331 25.4224C30.7101 26.4733 29.2769 27 27.435 27C25.9138 27 24.5721 26.5571 23.412 25.6687C22.2464 24.7823 21.667 23.3371 21.667 21.3375C21.667 19.4625 22.1918 18.0244 23.24 17.024C24.291 16.0256 25.6504 15.5231 27.3251 15.5231C28.3201 15.5231 29.2148 15.6928 30.0119 16.0308C30.8104 16.3682 31.4669 16.9028 31.9842 17.632ZM24.7468 20.1504H29.8959C29.8413 19.3989 29.5738 18.8309 29.1002 18.4398C28.6211 18.0513 28.0315 17.8574 27.3265 17.8574C26.5622 17.8574 25.965 18.0637 25.5433 18.4758C25.1215 18.8879 24.8554 19.4461 24.7468 20.1504Z" fill="white"/>
</g>
<defs>
<clipPath id="clip0_1771_78">
<rect width="40" height="40" fill="white"/>
</clipPath>
</defs>
</svg>
