<svg width="40" height="40" viewBox="0 0 40 40" fill="none" xmlns="http://www.w3.org/2000/svg">
<mask id="mask0_545_1156" style="mask-type:alpha" maskUnits="userSpaceOnUse" x="0" y="0" width="40" height="40">
<rect width="40" height="40" fill="#D9D9D9"/>
</mask>
<g mask="url(#mask0_545_1156)">
<path d="M21.0188 21.3554C21.0741 20.3503 21.5578 19.4649 22.2875 18.8372C23.0032 18.2207 23.9664 17.8439 25.0173 17.8439C26.0672 17.8439 27.0304 18.2207 27.7466 18.8372C28.4758 19.4649 28.9594 20.3503 29.0153 21.3543C29.0707 22.387 28.6628 23.3463 27.9472 24.0574C27.2174 24.7808 26.1795 25.2346 25.0173 25.2346C23.8551 25.2346 22.8151 24.7808 22.0859 24.0574C21.3698 23.3463 20.9629 22.387 21.0188 21.3554Z" fill="#265787"/>
<path d="M14.2436 23.4882C14.2505 23.8741 14.3761 24.6241 14.5646 25.2098C14.9606 26.4495 15.6323 27.5964 16.5671 28.6071C17.5263 29.6461 18.7074 30.4806 20.0717 31.073C21.5057 31.6952 23.0595 32.0123 24.6734 32.0097C26.2847 32.0076 27.8385 31.6843 29.2725 31.0574C30.6368 30.4592 31.8169 29.621 32.7745 28.5816C33.7087 27.5667 34.3794 26.4177 34.7765 25.178C34.9761 24.5516 35.1022 23.9158 35.1528 23.278C35.2023 22.6495 35.1815 22.02 35.0905 21.391C34.9127 20.1654 34.48 19.0154 33.8135 17.9671C33.2041 17.0038 32.4184 16.1604 31.4842 15.4506L31.4863 15.449L22.0588 8.35651C22.0503 8.35026 22.0434 8.34349 22.0343 8.33775C21.4158 7.87253 20.3757 7.8741 19.6954 8.34036C19.0077 8.81184 18.9289 9.59154 19.541 10.0834L19.5383 10.086L23.4704 13.2189L11.4857 13.2314H11.4698C10.4792 13.2325 9.52688 13.8693 9.33845 14.674C9.14469 15.4939 9.81751 16.174 10.8475 16.1776L10.8459 16.1813L16.9205 16.1698L6.08077 24.3221C6.06693 24.332 6.05203 24.3425 6.03925 24.3524C5.01671 25.1196 4.68616 26.3953 5.33024 27.2026C5.9839 28.0235 7.37373 28.0251 8.40692 27.2073L14.3229 22.4633C14.3229 22.4633 14.2367 23.1038 14.2436 23.4882ZM29.4455 25.6328C28.2265 26.8495 26.52 27.5396 24.6734 27.5432C22.8242 27.5463 21.1177 26.8626 19.8987 25.6479C19.3031 25.0559 18.8655 24.3748 18.5956 23.6493C18.3311 22.9364 18.2284 22.1796 18.2965 21.4161C18.3609 20.6697 18.5877 19.9578 18.9496 19.3137C19.3052 18.6805 19.7949 18.1084 20.3996 17.6244C21.5845 16.6783 23.093 16.1662 24.6708 16.1641C26.2501 16.162 27.7576 16.6695 28.9435 17.6124C29.5472 18.0943 30.0364 18.6644 30.3919 19.2965C30.7555 19.9401 30.9806 20.6494 31.0477 21.3978C31.1148 22.1603 31.0121 22.916 30.7475 23.6295C30.4771 24.3571 30.0411 25.0382 29.4455 25.6328Z" fill="#EA7600"/>
</g>
</svg>
