<svg width="40" height="40" viewBox="0 0 40 40" fill="none" xmlns="http://www.w3.org/2000/svg">
<mask id="mask0_571_389" style="mask-type:alpha" maskUnits="userSpaceOnUse" x="0" y="0" width="40" height="40">
<rect width="40" height="40" fill="#D9D9D9"/>
</mask>
<g mask="url(#mask0_571_389)">
</g>
<g clip-path="url(#clip0_571_389)">
<path d="M16.8512 31C18.976 31 20.7004 29.3573 20.7004 27.3333V23.6666H16.8512C14.7264 23.6666 13.002 25.3093 13.002 27.3333C13.002 29.3573 14.7264 31 16.8512 31Z" fill="#0ACF83"/>
<path d="M13.002 20C13.002 17.976 14.7264 16.3334 16.8512 16.3334H20.7004V23.6667H16.8512C14.7264 23.6667 13.002 22.024 13.002 20Z" fill="#A259FF"/>
<path d="M13.002 12.6667C13.002 10.6427 14.7264 9 16.8512 9H20.7004V16.3333H16.8512C14.7264 16.3333 13.002 14.6907 13.002 12.6667Z" fill="#F24E1E"/>
<path d="M20.6992 9H24.5484C26.6732 9 28.3977 10.6427 28.3977 12.6667C28.3977 14.6907 26.6732 16.3333 24.5484 16.3333H20.6992V9Z" fill="#FF7262"/>
<path d="M28.3977 20C28.3977 22.024 26.6732 23.6667 24.5484 23.6667C22.4237 23.6667 20.6992 22.024 20.6992 20C20.6992 17.976 22.4237 16.3334 24.5484 16.3334C26.6732 16.3334 28.3977 17.976 28.3977 20Z" fill="#1ABCFE"/>
</g>
<defs>
<clipPath id="clip0_571_389">
<rect width="15.4" height="22" fill="white" transform="translate(13 9)"/>
</clipPath>
</defs>
</svg>
