<svg width="40" height="40" viewBox="0 0 40 40" fill="none" xmlns="http://www.w3.org/2000/svg">
<mask id="mask0_571_388" style="mask-type:alpha" maskUnits="userSpaceOnUse" x="0" y="0" width="40" height="40">
<rect width="40" height="40" fill="#D9D9D9"/>
</mask>
<g mask="url(#mask0_571_388)">
<path d="M34.0024 27.21C32.9384 27.21 32.0214 26.937 31.2514 26.391C30.4814 25.845 29.8864 25.075 29.4664 24.081C29.0604 23.073 28.8574 21.904 28.8574 20.574C28.8574 19.454 28.9624 18.502 29.1724 17.718C29.3964 16.92 29.6974 16.262 30.0754 15.744C30.4534 15.226 30.8664 14.82 31.3144 14.526C31.7764 14.232 32.2314 14.029 32.6794 13.917C33.1414 13.805 33.5614 13.749 33.9394 13.749C34.4854 13.749 35.0104 13.847 35.5144 14.043C36.0184 14.225 36.4804 14.477 36.9004 14.799C37.3204 15.121 37.6494 15.513 37.8874 15.975L36.7534 16.983L36.5854 17.13L36.4804 17.004C36.4944 16.892 36.4804 16.787 36.4384 16.689C36.3964 16.591 36.2984 16.451 36.1444 16.269C35.9484 16.045 35.7454 15.863 35.5354 15.723C35.3254 15.569 35.0874 15.457 34.8214 15.387C34.5694 15.317 34.2824 15.282 33.9604 15.282C33.5964 15.282 33.2464 15.331 32.9104 15.429C32.5884 15.527 32.2874 15.702 32.0074 15.954C31.7274 16.192 31.4824 16.507 31.2724 16.899C31.0624 17.277 30.9014 17.753 30.7894 18.327C30.6774 18.887 30.6214 19.545 30.6214 20.301C30.6214 21.183 30.6984 21.96 30.8524 22.632C31.0064 23.304 31.2304 23.871 31.5244 24.333C31.8324 24.781 32.1894 25.124 32.5954 25.362C33.0154 25.586 33.4844 25.698 34.0024 25.698C34.1844 25.698 34.3734 25.691 34.5694 25.677C34.7794 25.649 34.9824 25.607 35.1784 25.551C35.3884 25.481 35.5844 25.397 35.7664 25.299C35.9624 25.201 36.1444 25.089 36.3124 24.963V22.086H34.0024V20.574H37.9294V25.845C37.3134 26.307 36.6694 26.65 35.9974 26.874C35.3394 27.098 34.6744 27.21 34.0024 27.21Z" fill="black"/>
<path d="M18.8613 13.917H20.6253L25.7703 23.262L25.7283 13.917H27.3663H27.5763V14.085C27.4923 14.169 27.4363 14.26 27.4083 14.358C27.3943 14.456 27.3873 14.624 27.3873 14.862V27H25.8753L20.4993 17.088V27H18.8613V13.917Z" fill="black"/>
<path d="M8.75977 27V13.917H13.0438C14.0378 13.917 14.8428 14.092 15.4588 14.442C16.0888 14.778 16.5508 15.226 16.8448 15.786C17.1388 16.346 17.2858 16.969 17.2858 17.655C17.2858 18.173 17.2018 18.656 17.0338 19.104C16.8798 19.538 16.6348 19.923 16.2988 20.259C15.9628 20.595 15.5358 20.861 15.0178 21.057C14.4998 21.239 13.8768 21.33 13.1488 21.33H10.5868V27H8.75977ZM10.5868 19.797H12.9808C13.5688 19.797 14.0448 19.713 14.4088 19.545C14.7728 19.363 15.0388 19.111 15.2068 18.789C15.3748 18.467 15.4588 18.103 15.4588 17.697C15.4588 17.291 15.3748 16.927 15.2068 16.605C15.0388 16.283 14.7728 16.024 14.4088 15.828C14.0448 15.632 13.5758 15.534 13.0018 15.534H10.5868V19.797Z" fill="black"/>
<path d="M2.31275 27.2311C1.94875 27.2311 1.63375 27.1051 1.36775 26.8531C1.10175 26.5871 0.96875 26.2721 0.96875 25.9081C0.96875 25.5581 1.10175 25.2501 1.36775 24.9841C1.63375 24.7181 1.94875 24.5851 2.31275 24.5851C2.67675 24.5851 2.98475 24.7181 3.23675 24.9841C3.50275 25.2501 3.63575 25.5581 3.63575 25.9081C3.63575 26.2721 3.50275 26.5871 3.23675 26.8531C2.98475 27.1051 2.67675 27.2311 2.31275 27.2311Z" fill="black"/>
</g>
</svg>
