<svg width="20" height="20" viewBox="0 0 20 20" fill="none" xmlns="http://www.w3.org/2000/svg">
<g clip-path="url(#clip0_1771_109)">
<path fill-rule="evenodd" clip-rule="evenodd" d="M12.1194 9.70128C12.0694 9.5817 12.0204 9.46168 11.9686 9.34166C11.8231 8.99899 11.6661 8.66034 11.5037 8.32749C14.2629 7.20089 15.3829 5.5817 15.3967 5.56252C16.3761 6.75248 16.97 8.27261 16.986 9.93017C16.8852 9.90786 14.5199 9.39921 12.1194 9.70128ZM13.9051 15.7948C13.8341 15.3736 13.4615 13.3225 12.5446 10.8047C14.801 10.4442 16.7553 11.0626 16.8995 11.1099C16.5889 13.057 15.4734 14.7355 13.9051 15.7948ZM10.0004 16.9878C8.35042 16.9878 6.83471 16.414 5.63847 15.457C5.67907 15.4887 5.7054 15.5083 5.7054 15.5083C5.7054 15.5083 7.04487 12.5876 11.1891 11.1433C11.2043 11.1375 11.2208 11.1335 11.2364 11.1291C12.2194 13.683 12.6245 15.8229 12.7285 16.4337C11.8905 16.7897 10.9673 16.9878 10.0004 16.9878ZM4.8032 14.669C3.6895 13.4309 3.01219 11.7948 3.01219 9.99933C3.01219 9.92526 3.0162 9.85209 3.01799 9.77936C3.14203 9.78204 6.59466 9.86012 10.1923 8.78349C10.3922 9.17479 10.5836 9.57412 10.759 9.97166C10.6666 9.99665 10.5751 10.0248 10.4837 10.0551C6.7129 11.2732 4.80008 14.6655 4.80008 14.6655C4.80008 14.6655 4.8032 14.6681 4.8032 14.669ZM7.01899 3.68187C7.11224 3.80591 8.40441 5.55761 9.61404 7.70685C6.25868 8.59877 3.34594 8.56307 3.16255 8.5604C3.61544 6.39553 5.06958 4.60144 7.01899 3.68187ZM8.32633 3.21606C8.32633 3.21695 8.32544 3.21829 8.32544 3.21829C8.32544 3.21829 8.31696 3.22007 8.30447 3.22186C8.31205 3.22007 8.31874 3.21918 8.32633 3.21606ZM10.0004 3.01304C11.7691 3.01304 13.3848 3.67294 14.6154 4.75716C14.598 4.78349 13.603 6.29871 10.9647 7.28655C9.77065 5.09224 8.4584 3.34902 8.35355 3.21026C8.88184 3.08265 9.43288 3.01304 10.0004 3.01304ZM17.5384 6.81539C17.3345 6.33039 17.0793 5.86279 16.7839 5.42598C16.4925 4.99319 16.1557 4.58494 15.7862 4.21595C15.4159 3.84517 15.0089 3.50964 14.5748 3.21695C14.138 2.92069 13.6704 2.6677 13.1854 2.46201C12.691 2.25409 12.1734 2.09258 11.6478 1.98594C11.1092 1.87484 10.5551 1.81818 10.0004 1.81818C9.44538 1.81818 8.89121 1.87484 8.35265 1.98594C7.82704 2.09258 7.30946 2.25409 6.81463 2.46201C6.32962 2.6677 5.86246 2.92069 5.42474 3.21695C4.99149 3.50964 4.58456 3.84517 4.21423 4.21595C3.84478 4.58494 3.5088 4.99319 3.2161 5.42598C2.92072 5.86279 2.66594 6.33039 2.46203 6.81539C2.25232 7.30975 2.09125 7.82821 1.98371 8.35337C1.87395 8.89146 1.81818 9.44517 1.81818 9.99933C1.81818 10.5557 1.87395 11.1099 1.98371 11.6484C2.09125 12.174 2.25232 12.6911 2.46203 13.185C2.66594 13.6696 2.92072 14.139 3.2161 14.5758C3.5088 15.009 3.84478 15.4151 4.21423 15.7863C4.58456 16.1557 4.99149 16.4903 5.42474 16.7839C5.86246 17.0793 6.32962 17.3332 6.81463 17.538C7.30946 17.7477 7.82704 17.9074 8.35265 18.0145C8.89121 18.126 9.44538 18.1818 10.0004 18.1818C10.5551 18.1818 11.1092 18.126 11.6478 18.0145C12.1734 17.9074 12.691 17.7477 13.1854 17.538C13.6704 17.3332 14.138 17.0793 14.5748 16.7839C15.0089 16.4903 15.4159 16.1557 15.7862 15.7863C16.1557 15.4151 16.4925 15.009 16.7839 14.5758C17.0793 14.139 17.3345 13.6696 17.5384 13.185C17.7472 12.6911 17.9087 12.174 18.0167 11.6484C18.126 11.1099 18.1818 10.5557 18.1818 9.99933C18.1818 9.44517 18.126 8.89146 18.0167 8.35337C17.9087 7.82821 17.7472 7.30975 17.5384 6.81539Z" fill="#666666"/>
<path d="M5.63847 15.457C6.83471 16.414 8.35042 16.9878 10.0004 16.9878C10.9673 16.9878 11.8905 16.7897 12.7285 16.4337C12.6245 15.8229 12.2194 13.683 11.2364 11.1291C11.2208 11.1335 11.2043 11.1375 11.1891 11.1433C7.04487 12.5876 5.7054 15.5083 5.7054 15.5083C5.7054 15.5083 5.67907 15.4887 5.63847 15.457ZM5.63847 15.457C5.61304 15.4378 5.58403 15.4146 5.54834 15.3861M12.1194 9.70128C12.0694 9.5817 12.0204 9.46168 11.9686 9.34166C11.8231 8.99899 11.6661 8.66034 11.5037 8.32749C14.2629 7.20089 15.3829 5.5817 15.3967 5.56252C16.3761 6.75248 16.97 8.27261 16.986 9.93017C16.8852 9.90786 14.5199 9.39921 12.1194 9.70128ZM13.9051 15.7948C13.8341 15.3736 13.4615 13.3225 12.5446 10.8047C14.801 10.4442 16.7553 11.0626 16.8995 11.1099C16.5889 13.057 15.4734 14.7355 13.9051 15.7948ZM4.8032 14.669C3.6895 13.4309 3.01219 11.7948 3.01219 9.99933C3.01219 9.92526 3.0162 9.85209 3.01799 9.77936C3.14203 9.78204 6.59466 9.86012 10.1923 8.78349C10.3922 9.17479 10.5836 9.57412 10.759 9.97166C10.6666 9.99665 10.5751 10.0248 10.4837 10.0551C6.7129 11.2732 4.80008 14.6655 4.80008 14.6655C4.80008 14.6655 4.8032 14.6681 4.8032 14.669ZM7.01899 3.68187C7.11224 3.80591 8.40441 5.55761 9.61404 7.70685C6.25868 8.59877 3.34594 8.56307 3.16255 8.5604C3.61544 6.39553 5.06958 4.60144 7.01899 3.68187ZM8.32633 3.21606C8.32633 3.21695 8.32544 3.21829 8.32544 3.21829C8.32544 3.21829 8.31696 3.22007 8.30447 3.22186C8.31205 3.22007 8.31874 3.21918 8.32633 3.21606ZM10.0004 3.01304C11.7691 3.01304 13.3848 3.67294 14.6154 4.75716C14.598 4.78349 13.603 6.29871 10.9647 7.28655C9.77065 5.09224 8.4584 3.34902 8.35355 3.21026C8.88184 3.08265 9.43288 3.01304 10.0004 3.01304ZM17.5384 6.81539C17.3345 6.33039 17.0793 5.86279 16.7839 5.42598C16.4925 4.99319 16.1557 4.58494 15.7862 4.21595C15.4159 3.84517 15.0089 3.50964 14.5748 3.21695C14.138 2.92069 13.6704 2.6677 13.1854 2.46201C12.691 2.25409 12.1734 2.09258 11.6478 1.98594C11.1092 1.87484 10.5551 1.81818 10.0004 1.81818C9.44538 1.81818 8.89121 1.87484 8.35265 1.98594C7.82704 2.09258 7.30946 2.25409 6.81463 2.46201C6.32962 2.6677 5.86246 2.92069 5.42474 3.21695C4.99149 3.50964 4.58456 3.84517 4.21423 4.21595C3.84478 4.58494 3.5088 4.99319 3.2161 5.42598C2.92072 5.86279 2.66594 6.33039 2.46203 6.81539C2.25232 7.30975 2.09125 7.82821 1.98371 8.35337C1.87395 8.89146 1.81818 9.44517 1.81818 9.99933C1.81818 10.5557 1.87395 11.1099 1.98371 11.6484C2.09125 12.174 2.25232 12.6911 2.46203 13.185C2.66594 13.6696 2.92072 14.139 3.2161 14.5758C3.5088 15.009 3.84478 15.4151 4.21423 15.7863C4.58456 16.1557 4.99149 16.4903 5.42474 16.7839C5.86246 17.0793 6.32962 17.3332 6.81463 17.538C7.30946 17.7477 7.82704 17.9074 8.35265 18.0145C8.89121 18.126 9.44538 18.1818 10.0004 18.1818C10.5551 18.1818 11.1092 18.126 11.6478 18.0145C12.1734 17.9074 12.691 17.7477 13.1854 17.538C13.6704 17.3332 14.138 17.0793 14.5748 16.7839C15.0089 16.4903 15.4159 16.1557 15.7862 15.7863C16.1557 15.4151 16.4925 15.009 16.7839 14.5758C17.0793 14.139 17.3345 13.6696 17.5384 13.185C17.7472 12.6911 17.9087 12.174 18.0167 11.6484C18.126 11.1099 18.1818 10.5557 18.1818 9.99933C18.1818 9.44517 18.126 8.89146 18.0167 8.35337C17.9087 7.82821 17.7472 7.30975 17.5384 6.81539Z" stroke="#666666" stroke-width="0.2"/>
</g>
<defs>
<clipPath id="clip0_1771_109">
<rect width="20" height="20" fill="white"/>
</clipPath>
</defs>
</svg>
