<svg width="310" height="33" viewBox="0 0 310 33" fill="none" xmlns="http://www.w3.org/2000/svg">
<path d="M285.158 8.492V12.716C288.59 12.7747 292.008 12.7893 295.41 12.76C298.813 12.7013 302.304 12.6133 305.882 12.496V20.064C302.304 19.9467 298.813 19.8733 295.41 19.844C292.008 19.7853 288.59 19.7853 285.158 19.844V24.42C287.681 24.3907 290.38 24.3613 293.254 24.332C296.129 24.3027 298.96 24.2587 301.746 24.2C304.562 24.1413 307.114 24.0533 309.402 23.936C309.197 25.2853 309.065 26.6787 309.006 28.116C308.977 29.5533 308.962 31.0053 308.962 32.472H274.774C275.214 21.8533 275.214 11.2053 274.774 0.528H308.962V8.492H285.158Z" fill="#222222"/>
<path d="M246.122 8.492V12.716C249.554 12.7747 252.972 12.7893 256.374 12.76C259.777 12.7013 263.267 12.6133 266.846 12.496V20.064C263.267 19.9467 259.777 19.8733 256.374 19.844C252.972 19.7853 249.554 19.7853 246.122 19.844V24.42C248.645 24.3907 251.344 24.3613 254.218 24.332C257.093 24.3027 259.924 24.2587 262.71 24.2C265.526 24.1413 268.078 24.0533 270.366 23.936C270.161 25.2853 270.029 26.6787 269.97 28.116C269.941 29.5533 269.926 31.0053 269.926 32.472H235.738C236.178 21.8533 236.178 11.2053 235.738 0.528H269.926V8.492H246.122Z" fill="#222222"/>
<path d="M206.398 32.472H196.014C196.454 21.824 196.454 11.176 196.014 0.528H206.398V0.571999H215.418C218.616 0.571999 221.241 0.850666 223.294 1.408C225.377 1.96533 227.005 2.74267 228.178 3.74C229.352 4.708 230.173 5.83733 230.642 7.128C231.112 8.38933 231.346 9.73866 231.346 11.176C231.346 12.7307 231.097 14.1973 230.598 15.576C230.129 16.9253 229.293 18.1133 228.09 19.14C226.917 20.1373 225.245 20.9147 223.074 21.472C224.365 23.2907 225.626 25.0653 226.858 26.796C228.09 28.4973 229.454 30.3893 230.95 32.472H218.982C218.102 30.8293 217.149 29.1867 216.122 27.544C215.125 25.872 214.04 24.112 212.866 22.264H206.398V32.472ZM206.398 14.036H212.338C214.802 14.036 216.68 13.9627 217.97 13.816C219.29 13.64 220.185 13.376 220.654 13.024C221.153 12.6427 221.402 12.1293 221.402 11.484C221.402 10.868 221.168 10.384 220.698 10.032C220.258 9.68 219.378 9.43067 218.058 9.284C216.768 9.108 214.861 9.02 212.338 9.02H206.398V14.036Z" fill="#222222"/>
<path d="M167.663 8.756V13.376C175.026 13.464 182.52 13.3907 190.147 13.156V21.78C182.579 21.516 175.084 21.428 167.663 21.516V32.472H157.279C157.719 21.8533 157.719 11.2053 157.279 0.528H191.599V8.756H167.663Z" fill="#222222"/>
<path d="M118.653 32.516H108.489L122.173 14.212C121.41 14.8867 120.471 15.4147 119.357 15.796C118.242 16.148 116.981 16.324 115.573 16.324C113.549 16.324 111.847 15.972 110.469 15.268C109.09 14.564 108.049 13.6107 107.345 12.408C106.641 11.2053 106.289 9.87067 106.289 8.404C106.289 6.93733 106.641 5.61733 107.345 4.444C108.049 3.24133 109.09 2.288 110.469 1.584C111.847 0.88 113.549 0.528 115.573 0.528C117.567 0.528 119.239 0.88 120.589 1.584C121.967 2.288 123.009 3.24133 123.713 4.444C124.417 5.61733 124.769 6.93733 124.769 8.404C124.769 9.57733 124.549 10.648 124.109 11.616L132.161 0.879997H142.281L129.213 18.392C129.975 17.864 130.855 17.4533 131.853 17.16C132.879 16.8667 134.038 16.72 135.329 16.72C137.323 16.72 138.995 17.072 140.345 17.776C141.723 18.48 142.765 19.4333 143.469 20.636C144.173 21.8093 144.525 23.1293 144.525 24.596C144.525 26.0627 144.173 27.3973 143.469 28.6C142.765 29.8027 141.723 30.756 140.345 31.46C138.995 32.164 137.323 32.516 135.329 32.516C133.305 32.516 131.603 32.164 130.225 31.46C128.846 30.756 127.805 29.8027 127.101 28.6C126.397 27.3973 126.045 26.0627 126.045 24.596C126.045 23.716 126.177 22.88 126.441 22.088L118.653 32.516ZM135.329 26.972C135.945 26.972 136.502 26.7373 137.001 26.268C137.529 25.7693 137.793 25.1973 137.793 24.552C137.793 23.936 137.529 23.408 137.001 22.968C136.502 22.528 135.945 22.308 135.329 22.308C134.683 22.308 134.097 22.528 133.569 22.968C133.041 23.408 132.777 23.936 132.777 24.552C132.777 25.1973 133.041 25.7693 133.569 26.268C134.097 26.7373 134.683 26.972 135.329 26.972ZM115.573 10.78C116.189 10.78 116.746 10.5453 117.245 10.076C117.773 9.57733 118.037 9.00533 118.037 8.36C118.037 7.744 117.773 7.216 117.245 6.776C116.746 6.336 116.189 6.116 115.573 6.116C114.927 6.116 114.341 6.336 113.813 6.776C113.285 7.216 113.021 7.744 113.021 8.36C113.021 9.00533 113.285 9.57733 113.813 10.076C114.341 10.5453 114.927 10.78 115.573 10.78Z" fill="#222222"/>
<path d="M84.8171 32.912C80.4758 32.912 76.9411 32.2227 74.2131 30.844C71.5144 29.4653 69.5344 27.544 68.2731 25.08C67.0118 22.616 66.3811 19.7413 66.3811 16.456C66.3811 13.2 67.0118 10.34 68.2731 7.876C69.5344 5.412 71.5144 3.50533 74.2131 2.156C76.9411 0.777332 80.4758 0.0879974 84.8171 0.0879974C89.1584 0.0879974 92.6784 0.777332 95.3771 2.156C98.0758 3.50533 100.056 5.412 101.317 7.876C102.578 10.34 103.209 13.2 103.209 16.456C103.209 19.7413 102.578 22.616 101.317 25.08C100.056 27.544 98.0758 29.4653 95.3771 30.844C92.6784 32.2227 89.1584 32.912 84.8171 32.912ZM84.8611 25.212C86.8264 25.212 88.3664 24.8013 89.4811 23.98C90.5958 23.1293 91.3878 22.0293 91.8571 20.68C92.3558 19.3307 92.6051 17.9227 92.6051 16.456C92.6051 14.9893 92.3558 13.596 91.8571 12.276C91.3878 10.9267 90.5958 9.84133 89.4811 9.02C88.3664 8.16933 86.8264 7.744 84.8611 7.744C82.8664 7.744 81.2824 8.16933 80.1091 9.02C78.9651 9.84133 78.1438 10.9267 77.6451 12.276C77.1758 13.596 76.9411 14.9893 76.9411 16.456C76.9411 17.9227 77.1758 19.3307 77.6451 20.68C78.1438 22 78.9651 23.0853 80.1091 23.936C81.2824 24.7867 82.8664 25.212 84.8611 25.212Z" fill="#222222"/>
<path d="M43.5894 32.912C39.2481 32.912 35.7134 32.2227 32.9854 30.844C30.2868 29.4653 28.3068 27.544 27.0454 25.08C25.7841 22.616 25.1534 19.7413 25.1534 16.456C25.1534 13.2 25.7841 10.34 27.0454 7.876C28.3068 5.412 30.2868 3.50533 32.9854 2.156C35.7134 0.777332 39.2481 0.0879974 43.5894 0.0879974C47.9308 0.0879974 51.4508 0.777332 54.1494 2.156C56.8481 3.50533 58.8281 5.412 60.0894 7.876C61.3508 10.34 61.9814 13.2 61.9814 16.456C61.9814 19.7413 61.3508 22.616 60.0894 25.08C58.8281 27.544 56.8481 29.4653 54.1494 30.844C51.4508 32.2227 47.9308 32.912 43.5894 32.912ZM43.6334 25.212C45.5988 25.212 47.1388 24.8013 48.2534 23.98C49.3681 23.1293 50.1601 22.0293 50.6294 20.68C51.1281 19.3307 51.3774 17.9227 51.3774 16.456C51.3774 14.9893 51.1281 13.596 50.6294 12.276C50.1601 10.9267 49.3681 9.84133 48.2534 9.02C47.1388 8.16933 45.5988 7.744 43.6334 7.744C41.6388 7.744 40.0548 8.16933 38.8814 9.02C37.7374 9.84133 36.9161 10.9267 36.4174 12.276C35.9481 13.596 35.7134 14.9893 35.7134 16.456C35.7134 17.9227 35.9481 19.3307 36.4174 20.68C36.9161 22 37.7374 23.0853 38.8814 23.936C40.0548 24.7867 41.6388 25.212 43.6334 25.212Z" fill="#222222"/>
<path d="M8.69366 0.175999V0.0879974H18.2857V24.332C20.2217 24.3027 22.1723 24.244 24.1377 24.156V32.472H0.861656V24.156C3.26699 24.244 5.65766 24.3027 8.03366 24.332V9.152C7.44699 10.472 6.56699 11.484 5.39366 12.188C4.24966 12.8627 2.97366 13.3467 1.56566 13.64C1.53632 12.0853 1.44832 10.5307 1.30166 8.976C1.15499 7.392 0.920323 5.79333 0.597656 4.18C2.06432 3.97467 3.22299 3.74 4.07366 3.476C4.95366 3.212 5.64299 2.91866 6.14166 2.596C6.66966 2.27333 7.10966 1.90666 7.46166 1.496C7.84299 1.08533 8.25366 0.645331 8.69366 0.175999Z" fill="#222222"/>
</svg>
