
<svg width="794" height="56" viewBox="0 0 794 56"  xmlns="http://www.w3.org/2000/svg">
<path d="M778.01 42.5C775.376 42.5 772.61 42.1333 769.71 41.4C766.81 40.6333 764.026 39.4167 761.36 37.75L766.61 30.6C767.743 31.4 768.993 32.0667 770.36 32.6C771.76 33.1 773.11 33.4833 774.41 33.75C775.743 33.9833 776.86 34.1 777.76 34.1C779.326 34.1 780.493 33.8833 781.26 33.45C782.06 33.0167 782.46 32.4833 782.46 31.85C782.46 30.7167 781.71 30.15 780.21 30.15C779.41 30.15 778.66 30.2 777.96 30.3C777.293 30.3667 776.51 30.4333 775.61 30.5C774.71 30.5667 773.526 30.6 772.06 30.6C770.293 30.6 768.643 30.3833 767.11 29.95C765.576 29.5167 764.343 28.7833 763.41 27.75C762.51 26.6833 762.06 25.25 762.06 23.45C762.06 20.5833 763.41 18.3333 766.11 16.7C768.843 15.0333 772.943 14.2 778.41 14.2C780.843 14.2 783.41 14.55 786.11 15.25C788.843 15.95 791.31 17.1 793.51 18.7L787.76 24.5C785.76 23.4333 783.926 22.7167 782.26 22.35C780.626 21.95 779.026 21.75 777.46 21.75C776.293 21.75 775.293 21.9833 774.46 22.45C773.626 22.9167 773.21 23.45 773.21 24.05C773.21 24.5167 773.376 24.8833 773.71 25.15C774.076 25.4167 774.543 25.55 775.11 25.55C775.843 25.55 776.893 25.4833 778.26 25.35C779.626 25.2167 781.176 25.15 782.91 25.15C786.276 25.15 788.926 25.7167 790.86 26.85C792.826 27.9833 793.81 29.7833 793.81 32.25C793.81 34.7833 793.126 36.8 791.76 38.3C790.426 39.7667 788.56 40.8333 786.16 41.5C783.793 42.1667 781.076 42.5 778.01 42.5Z" fill=""/>
<path d="M749.5 42.5C746.767 42.5 744.617 42.05 743.05 41.15C741.483 40.2167 740.383 38.95 739.75 37.35C739.117 35.7167 738.8 33.8667 738.8 31.8C738.8 30.2333 738.8 28.7667 738.8 27.4C738.833 26 738.85 24.65 738.85 23.35C737.317 23.4167 735.683 23.5167 733.95 23.65V14.8C735.75 14.8 737.233 14.2333 738.4 13.1C739.567 11.9667 740.267 10.6667 740.5 9.2H754.1C753.333 10.2333 752.5 11.2333 751.6 12.2C750.7 13.1333 749.65 14 748.45 14.8H758.1V23.65C756.6 23.55 755.15 23.4667 753.75 23.4C752.383 23.3 751.033 23.2333 749.7 23.2C749.7 24.1667 749.683 25.15 749.65 26.15C749.65 27.1167 749.65 27.9 749.65 28.5C749.65 29.7 749.833 30.7833 750.2 31.75C750.6 32.7167 751.35 33.4167 752.45 33.85C753.55 34.2833 755.133 34.35 757.2 34.05C757.067 35.3167 757 36.4667 757 37.5C757 38.5 757.017 39.6833 757.05 41.05C757.083 41.1833 757.1 41.3333 757.1 41.5C757.1 41.6333 757.1 41.7667 757.1 41.9C756.067 42.0667 755.15 42.2 754.35 42.3C753.583 42.4 752.817 42.45 752.05 42.45C751.317 42.4833 750.467 42.5 749.5 42.5Z" />
<path d="M716.352 42.5C713.719 42.5 710.952 42.1333 708.052 41.4C705.152 40.6333 702.369 39.4167 699.702 37.75L704.952 30.6C706.086 31.4 707.336 32.0667 708.702 32.6C710.102 33.1 711.452 33.4833 712.752 33.75C714.086 33.9833 715.202 34.1 716.102 34.1C717.669 34.1 718.836 33.8833 719.602 33.45C720.402 33.0167 720.802 32.4833 720.802 31.85C720.802 30.7167 720.052 30.15 718.552 30.15C717.752 30.15 717.002 30.2 716.302 30.3C715.636 30.3667 714.852 30.4333 713.952 30.5C713.052 30.5667 711.869 30.6 710.402 30.6C708.636 30.6 706.986 30.3833 705.452 29.95C703.919 29.5167 702.686 28.7833 701.752 27.75C700.852 26.6833 700.402 25.25 700.402 23.45C700.402 20.5833 701.752 18.3333 704.452 16.7C707.186 15.0333 711.286 14.2 716.752 14.2C719.186 14.2 721.752 14.55 724.452 15.25C727.186 15.95 729.652 17.1 731.852 18.7L726.102 24.5C724.102 23.4333 722.269 22.7167 720.602 22.35C718.969 21.95 717.369 21.75 715.802 21.75C714.636 21.75 713.636 21.9833 712.802 22.45C711.969 22.9167 711.552 23.45 711.552 24.05C711.552 24.5167 711.719 24.8833 712.052 25.15C712.419 25.4167 712.886 25.55 713.452 25.55C714.186 25.55 715.236 25.4833 716.602 25.35C717.969 25.2167 719.519 25.15 721.252 25.15C724.619 25.15 727.269 25.7167 729.202 26.85C731.169 27.9833 732.152 29.7833 732.152 32.25C732.152 34.7833 731.469 36.8 730.102 38.3C728.769 39.7667 726.902 40.8333 724.502 41.5C722.136 42.1667 719.419 42.5 716.352 42.5Z" />
<path d="M695.847 29.5C695.214 29.5 694.214 29.5 692.847 29.5C691.48 29.5 689.897 29.5 688.097 29.5C686.33 29.5 684.514 29.5 682.647 29.5C680.814 29.5 679.114 29.5 677.547 29.5C676.714 29.5 675.93 29.5 675.197 29.5C674.464 29.5 673.847 29.5 673.347 29.5C673.58 30.8333 674.197 32 675.197 33C676.197 33.9667 677.73 34.45 679.797 34.45C681.164 34.45 682.464 34.1833 683.697 33.65C684.964 33.1167 685.964 32.3333 686.697 31.3C688.03 31.9333 689.447 32.55 690.947 33.15C692.447 33.7167 693.997 34.2833 695.597 34.85C694.63 37.0167 692.814 38.8333 690.147 40.3C687.514 41.7667 683.914 42.5 679.347 42.5C675.347 42.5 672.13 41.8667 669.697 40.6C667.264 39.3333 665.48 37.6167 664.347 35.45C663.247 33.2833 662.697 30.8833 662.697 28.25C662.697 25.6833 663.247 23.3333 664.347 21.2C665.447 19.0667 667.214 17.3667 669.647 16.1C672.114 14.8333 675.347 14.2 679.347 14.2C683.114 14.2 686.28 14.8667 688.847 16.2C691.447 17.5333 693.347 19.35 694.547 21.65C695.78 23.95 696.214 26.5667 695.847 29.5ZM673.697 25.3H685.497C685.13 24.3 684.514 23.4667 683.647 22.8C682.78 22.1 681.58 21.75 680.047 21.75C678.347 21.75 676.964 22.0833 675.897 22.75C674.864 23.4167 674.13 24.2667 673.697 25.3Z" />
<path d="M658.841 29.5C658.208 29.5 657.208 29.5 655.841 29.5C654.475 29.5 652.891 29.5 651.091 29.5C649.325 29.5 647.508 29.5 645.641 29.5C643.808 29.5 642.108 29.5 640.541 29.5C639.708 29.5 638.925 29.5 638.191 29.5C637.458 29.5 636.841 29.5 636.341 29.5C636.575 30.8333 637.191 32 638.191 33C639.191 33.9667 640.725 34.45 642.791 34.45C644.158 34.45 645.458 34.1833 646.691 33.65C647.958 33.1167 648.958 32.3333 649.691 31.3C651.025 31.9333 652.441 32.55 653.941 33.15C655.441 33.7167 656.991 34.2833 658.591 34.85C657.625 37.0167 655.808 38.8333 653.141 40.3C650.508 41.7667 646.908 42.5 642.341 42.5C638.341 42.5 635.125 41.8667 632.691 40.6C630.258 39.3333 628.475 37.6167 627.341 35.45C626.241 33.2833 625.691 30.8833 625.691 28.25C625.691 25.6833 626.241 23.3333 627.341 21.2C628.441 19.0667 630.208 17.3667 632.641 16.1C635.108 14.8333 638.341 14.2 642.341 14.2C646.108 14.2 649.275 14.8667 651.841 16.2C654.441 17.5333 656.341 19.35 657.541 21.65C658.775 23.95 659.208 26.5667 658.841 29.5ZM636.691 25.3H648.491C648.125 24.3 647.508 23.4667 646.641 22.8C645.775 22.1 644.575 21.75 643.041 21.75C641.341 21.75 639.958 22.0833 638.891 22.75C637.858 23.4167 637.125 24.2667 636.691 25.3Z" />
<path d="M589.775 42H577.225L591.225 5.7H609.625L623.725 42H610.775C609.975 39.7 609.125 37.3167 608.225 34.85H592.275C591.842 36.05 591.408 37.25 590.975 38.45C590.575 39.65 590.175 40.8333 589.775 42ZM595.125 27.05H605.375C604.542 24.75 603.692 22.45 602.825 20.15C601.958 17.85 601.108 15.5667 600.275 13.3C599.408 15.5667 598.542 17.85 597.675 20.15C596.808 22.45 595.958 24.75 595.125 27.05Z" />
<path d="M539.036 5.14999C543.936 5.14999 547.97 5.59999 551.136 6.49999C554.336 7.39999 556.853 8.66666 558.686 10.3C560.52 11.9333 561.803 13.8833 562.536 16.15C563.303 18.3833 563.686 20.8667 563.686 23.6C563.686 27.2333 562.87 30.4333 561.236 33.2C559.603 35.9667 557.136 38.1333 553.836 39.7C550.536 41.2333 546.386 42 541.386 42C538.453 42 535.436 42 532.336 42C529.27 42 526.17 41.9833 523.036 41.95C523.536 29.5833 523.536 17.4833 523.036 5.64999C526.003 5.38333 528.903 5.23333 531.736 5.19999C534.57 5.16666 537.003 5.14999 539.036 5.14999ZM535.536 32.05H542.786C544.486 32.05 545.853 31.8167 546.886 31.35C547.92 30.8833 548.703 30.25 549.236 29.45C549.77 28.65 550.12 27.75 550.286 26.75C550.453 25.7167 550.536 24.6667 550.536 23.6C550.536 22.2 550.353 20.85 549.986 19.55C549.62 18.25 548.87 17.1833 547.736 16.35C546.636 15.5167 544.986 15.1 542.786 15.1C541.586 15.1 540.37 15.1167 539.136 15.15C537.936 15.15 536.736 15.2333 535.536 15.4V32.05Z" />
<path d="M506.118 23.6C508.418 23.2 510.352 23.15 511.918 23.45C513.485 23.7167 514.735 24.2167 515.668 24.95C516.602 25.65 517.268 26.4667 517.668 27.4C518.068 28.3333 518.268 29.25 518.268 30.15C518.268 32.1833 517.752 33.9833 516.718 35.55C515.718 37.0833 514.318 38.3667 512.518 39.4C510.718 40.4333 508.635 41.2167 506.268 41.75C503.902 42.25 501.385 42.5 498.718 42.5C495.852 42.5 493.068 42.1833 490.368 41.55C487.702 40.8833 485.318 39.75 483.218 38.15C481.118 36.55 479.468 34.3333 478.268 31.5C480.235 30.9667 482.302 30.4333 484.468 29.9C486.668 29.3667 488.568 28.6833 490.168 27.85C490.835 29.5167 491.802 30.7167 493.068 31.45C494.335 32.15 496.052 32.5 498.218 32.5C500.418 32.5 502.285 32.25 503.818 31.75C505.352 31.2167 506.118 30.4 506.118 29.3C506.118 28.4333 505.452 27.8667 504.118 27.6C502.785 27.3333 500.535 27.2 497.368 27.2H493.568V18.45H495.868C496.735 18.45 497.652 18.4333 498.618 18.4C499.618 18.3667 500.552 18.3 501.418 18.2C502.318 18.1 503.052 17.9333 503.618 17.7C504.185 17.4667 504.468 17.1333 504.468 16.7C504.468 15.9333 504.068 15.2833 503.268 14.75C502.468 14.1833 501.118 13.9 499.218 13.9C496.785 13.9 494.852 14.4 493.418 15.4C492.018 16.4 490.935 17.7833 490.168 19.55C488.435 18.85 486.618 18.25 484.718 17.75C482.818 17.2167 480.835 16.8 478.768 16.5C480.302 13.0333 482.685 10.2833 485.918 8.25C489.185 6.21667 493.535 5.2 498.968 5.2C502.435 5.2 505.502 5.65 508.168 6.55C510.868 7.41666 512.985 8.63333 514.518 10.2C516.085 11.7333 516.868 13.4833 516.868 15.45C516.868 16.4833 516.618 17.4667 516.118 18.4C515.618 19.3 514.602 20.1833 513.068 21.05C511.535 21.8833 509.218 22.7333 506.118 23.6Z" />
<path d="M453.146 14.7H464.646C463.646 17.2667 462.613 19.9167 461.546 22.65C460.513 25.35 459.346 28.2833 458.046 31.45C456.78 34.5833 455.28 38.1 453.546 42C452.48 44.4333 451.03 46.65 449.196 48.65C447.363 50.65 445.113 52.2333 442.446 53.4C439.78 54.6 436.613 55.1667 432.946 55.1C432.446 52.9333 431.963 50.9667 431.496 49.2C431.063 47.4333 430.48 45.6833 429.746 43.95C432.446 44.5833 434.746 44.7667 436.646 44.5C438.546 44.2333 440.03 43.7167 441.096 42.95C440.563 41.35 439.963 39.6833 439.296 37.95C438.663 36.1833 437.913 34.2333 437.046 32.1C436.213 29.9333 435.196 27.4333 433.996 24.6C432.83 21.7667 431.413 18.4667 429.746 14.7H441.596C442.063 16.6667 442.646 18.7333 443.346 20.9C444.046 23.0333 444.763 25.15 445.496 27.25C446.23 29.3167 446.863 31.2167 447.396 32.95C447.63 32.25 447.946 31.3167 448.346 30.15C448.746 28.9833 449.18 27.6833 449.646 26.25C450.146 24.8167 450.63 23.3833 451.096 21.95C451.563 20.4833 451.98 19.1167 452.346 17.85C452.713 16.5833 452.98 15.5333 453.146 14.7Z" />
<path d="M402.211 26.65C400.944 25.75 399.711 24.9333 398.511 24.2C397.311 23.4333 396.011 22.6833 394.611 21.95C396.511 19.55 398.728 17.6667 401.261 16.3C403.794 14.9 406.978 14.2 410.811 14.2C415.944 14.2 419.744 15.3167 422.211 17.55C424.711 19.75 425.961 23.15 425.961 27.75V33.7C425.961 34.8333 426.094 35.6333 426.361 36.1C426.628 36.5667 427.161 36.9 427.961 37.1L427.761 41.8C426.728 41.9667 425.811 42.0833 425.011 42.15C424.211 42.2167 423.161 42.25 421.861 42.25C420.261 42.25 418.978 42.05 418.011 41.65C417.078 41.2167 416.378 40.65 415.911 39.95C415.444 39.25 415.128 38.5 414.961 37.7C414.828 36.9 414.761 36.1333 414.761 35.4V34.15C413.794 36.85 412.394 38.8833 410.561 40.25C408.728 41.5833 406.361 42.25 403.461 42.25C396.761 42.25 393.411 39.6 393.411 34.3C393.411 32.1 394.128 30.4 395.561 29.2C397.028 27.9667 399.244 27.1167 402.211 26.65ZM414.761 30.2V28.9C413.594 29.4667 412.278 29.8667 410.811 30.1C409.378 30.3333 408.044 30.55 406.811 30.75C405.778 30.95 405.044 31.2167 404.611 31.55C404.211 31.85 404.011 32.2167 404.011 32.65C404.011 33.6167 404.878 34.1 406.611 34.1C408.478 34.1 410.161 33.7333 411.661 33C413.161 32.2667 414.194 31.3333 414.761 30.2ZM414.711 24.45C414.711 24.0833 414.478 23.75 414.011 23.45C413.544 23.15 412.828 23 411.861 23C410.128 23 408.611 23.3 407.311 23.9C406.011 24.4667 404.861 25.3 403.861 26.4C404.928 26.2667 406.078 26.1833 407.311 26.15C408.578 26.0833 409.928 26.05 411.361 26.05C412.728 26.05 413.628 25.8833 414.061 25.55C414.494 25.1833 414.711 24.8167 414.711 24.45Z" />
<path d="M364.507 5.14999C369.407 5.14999 373.44 5.59999 376.607 6.49999C379.807 7.39999 382.324 8.66666 384.157 10.3C385.99 11.9333 387.274 13.8833 388.007 16.15C388.774 18.3833 389.157 20.8667 389.157 23.6C389.157 27.2333 388.34 30.4333 386.707 33.2C385.074 35.9667 382.607 38.1333 379.307 39.7C376.007 41.2333 371.857 42 366.857 42C363.924 42 360.907 42 357.807 42C354.74 42 351.64 41.9833 348.507 41.95C349.007 29.5833 349.007 17.4833 348.507 5.64999C351.474 5.38333 354.374 5.23333 357.207 5.19999C360.04 5.16666 362.474 5.14999 364.507 5.14999ZM361.007 32.05H368.257C369.957 32.05 371.324 31.8167 372.357 31.35C373.39 30.8833 374.174 30.25 374.707 29.45C375.24 28.65 375.59 27.75 375.757 26.75C375.924 25.7167 376.007 24.6667 376.007 23.6C376.007 22.2 375.824 20.85 375.457 19.55C375.09 18.25 374.34 17.1833 373.207 16.35C372.107 15.5167 370.457 15.1 368.257 15.1C367.057 15.1 365.84 15.1167 364.607 15.15C363.407 15.15 362.207 15.2333 361.007 15.4V32.05Z" />
<path d="M317.648 42.5C315.015 42.5 312.248 42.1333 309.348 41.4C306.448 40.6333 303.665 39.4167 300.998 37.75L306.248 30.6C307.381 31.4 308.631 32.0667 309.998 32.6C311.398 33.1 312.748 33.4833 314.048 33.75C315.381 33.9833 316.498 34.1 317.398 34.1C318.965 34.1 320.131 33.8833 320.898 33.45C321.698 33.0167 322.098 32.4833 322.098 31.85C322.098 30.7167 321.348 30.15 319.848 30.15C319.048 30.15 318.298 30.2 317.598 30.3C316.931 30.3667 316.148 30.4333 315.248 30.5C314.348 30.5667 313.165 30.6 311.698 30.6C309.931 30.6 308.281 30.3833 306.748 29.95C305.215 29.5167 303.981 28.7833 303.048 27.75C302.148 26.6833 301.698 25.25 301.698 23.45C301.698 20.5833 303.048 18.3333 305.748 16.7C308.481 15.0333 312.581 14.2 318.048 14.2C320.481 14.2 323.048 14.55 325.748 15.25C328.481 15.95 330.948 17.1 333.148 18.7L327.398 24.5C325.398 23.4333 323.565 22.7167 321.898 22.35C320.265 21.95 318.665 21.75 317.098 21.75C315.931 21.75 314.931 21.9833 314.098 22.45C313.265 22.9167 312.848 23.45 312.848 24.05C312.848 24.5167 313.015 24.8833 313.348 25.15C313.715 25.4167 314.181 25.55 314.748 25.55C315.481 25.55 316.531 25.4833 317.898 25.35C319.265 25.2167 320.815 25.15 322.548 25.15C325.915 25.15 328.565 25.7167 330.498 26.85C332.465 27.9833 333.448 29.7833 333.448 32.25C333.448 34.7833 332.765 36.8 331.398 38.3C330.065 39.7667 328.198 40.8333 325.798 41.5C323.431 42.1667 320.715 42.5 317.648 42.5Z" />
<path d="M297.226 20.35H285.526V3H297.226V20.35Z" />
<path d="M281.67 29.5C281.037 29.5 280.037 29.5 278.67 29.5C277.304 29.5 275.72 29.5 273.92 29.5C272.154 29.5 270.337 29.5 268.47 29.5C266.637 29.5 264.937 29.5 263.37 29.5C262.537 29.5 261.754 29.5 261.02 29.5C260.287 29.5 259.67 29.5 259.17 29.5C259.404 30.8333 260.02 32 261.02 33C262.02 33.9667 263.554 34.45 265.62 34.45C266.987 34.45 268.287 34.1833 269.52 33.65C270.787 33.1167 271.787 32.3333 272.52 31.3C273.854 31.9333 275.27 32.55 276.77 33.15C278.27 33.7167 279.82 34.2833 281.42 34.85C280.454 37.0167 278.637 38.8333 275.97 40.3C273.337 41.7667 269.737 42.5 265.17 42.5C261.17 42.5 257.954 41.8667 255.52 40.6C253.087 39.3333 251.304 37.6167 250.17 35.45C249.07 33.2833 248.52 30.8833 248.52 28.25C248.52 25.6833 249.07 23.3333 250.17 21.2C251.27 19.0667 253.037 17.3667 255.47 16.1C257.937 14.8333 261.17 14.2 265.17 14.2C268.937 14.2 272.104 14.8667 274.67 16.2C277.27 17.5333 279.17 19.35 280.37 21.65C281.604 23.95 282.037 26.5667 281.67 29.5ZM259.52 25.3H271.32C270.954 24.3 270.337 23.4667 269.47 22.8C268.604 22.1 267.404 21.75 265.87 21.75C264.17 21.75 262.787 22.0833 261.72 22.75C260.687 23.4167 259.954 24.2667 259.52 25.3Z" />
<path d="M213.48 42C213.98 32.9667 213.98 23.8667 213.48 14.7C214.946 14.7667 216.146 14.8167 217.08 14.85C218.046 14.85 219.013 14.85 219.98 14.85C220.946 14.8167 222.146 14.7667 223.58 14.7L225.03 22.05C225.83 19.25 227.08 17.25 228.78 16.05C230.48 14.8167 232.33 14.2 234.33 14.2C236.396 14.2 238.146 14.65 239.58 15.55C241.013 16.45 242.096 17.65 242.83 19.15C243.596 20.65 243.98 22.3167 243.98 24.15C243.98 24.8167 243.98 25.4667 243.98 26.1C243.98 26.7333 243.98 27.35 243.98 27.95C243.98 30.6167 243.98 33.1167 243.98 35.45C244.013 37.75 244.096 39.9333 244.23 42H232.98C233.08 39.5333 233.146 37.2833 233.18 35.25C233.246 33.2167 233.28 30.95 233.28 28.45C233.28 26.95 232.913 25.7833 232.18 24.95C231.446 24.0833 230.546 23.65 229.48 23.65C228.446 23.65 227.513 24.1333 226.68 25.1C225.88 26.0333 225.43 27.3833 225.33 29.15C225.296 30.5167 225.263 31.8333 225.23 33.1C225.23 34.3333 225.23 35.65 225.23 37.05C225.263 38.45 225.33 40.1 225.43 42H213.48Z" />
<path d="M208.122 42H196.222C196.455 37.2667 196.572 32.7167 196.572 28.35C196.572 23.9833 196.439 19.4333 196.172 14.7H208.172C207.939 19.2333 207.805 23.7833 207.772 28.35C207.772 32.8833 207.889 37.4333 208.122 42ZM202.022 11.75C199.789 11.75 198.189 11.2 197.222 10.1C196.289 9 195.822 7.68333 195.822 6.15C195.822 4.65 196.289 3.33333 197.222 2.2C198.189 1.06667 199.789 0.5 202.022 0.5C204.155 0.5 205.722 1.06667 206.722 2.2C207.722 3.33333 208.222 4.65 208.222 6.15C208.222 7.68333 207.722 9 206.722 10.1C205.755 11.2 204.189 11.75 202.022 11.75Z" />
<path d="M182.962 42.5C180.229 42.5 178.079 42.05 176.512 41.15C174.945 40.2167 173.845 38.95 173.212 37.35C172.579 35.7167 172.262 33.8667 172.262 31.8C172.262 30.2333 172.262 28.7667 172.262 27.4C172.295 26 172.312 24.65 172.312 23.35C170.779 23.4167 169.145 23.5167 167.412 23.65V14.8C169.212 14.8 170.695 14.2333 171.862 13.1C173.029 11.9667 173.729 10.6667 173.962 9.2H187.562C186.795 10.2333 185.962 11.2333 185.062 12.2C184.162 13.1333 183.112 14 181.912 14.8H191.562V23.65C190.062 23.55 188.612 23.4667 187.212 23.4C185.845 23.3 184.495 23.2333 183.162 23.2C183.162 24.1667 183.145 25.15 183.112 26.15C183.112 27.1167 183.112 27.9 183.112 28.5C183.112 29.7 183.295 30.7833 183.662 31.75C184.062 32.7167 184.812 33.4167 185.912 33.85C187.012 34.2833 188.595 34.35 190.662 34.05C190.529 35.3167 190.462 36.4667 190.462 37.5C190.462 38.5 190.479 39.6833 190.512 41.05C190.545 41.1833 190.562 41.3333 190.562 41.5C190.562 41.6333 190.562 41.7667 190.562 41.9C189.529 42.0667 188.612 42.2 187.812 42.3C187.045 42.4 186.279 42.45 185.512 42.45C184.779 42.4833 183.929 42.5 182.962 42.5Z" />
<path d="M133.371 42C133.871 32.9667 133.871 23.8667 133.371 14.7C134.838 14.7667 136.038 14.8167 136.971 14.85C137.938 14.85 138.905 14.85 139.871 14.85C140.838 14.8167 142.038 14.7667 143.471 14.7L144.921 22.05C145.721 19.25 146.971 17.25 148.671 16.05C150.371 14.8167 152.221 14.2 154.221 14.2C156.288 14.2 158.038 14.65 159.471 15.55C160.905 16.45 161.988 17.65 162.721 19.15C163.488 20.65 163.871 22.3167 163.871 24.15C163.871 24.8167 163.871 25.4667 163.871 26.1C163.871 26.7333 163.871 27.35 163.871 27.95C163.871 30.6167 163.871 33.1167 163.871 35.45C163.905 37.75 163.988 39.9333 164.121 42H152.871C152.971 39.5333 153.038 37.2833 153.071 35.25C153.138 33.2167 153.171 30.95 153.171 28.45C153.171 26.95 152.805 25.7833 152.071 24.95C151.338 24.0833 150.438 23.65 149.371 23.65C148.338 23.65 147.405 24.1333 146.571 25.1C145.771 26.0333 145.321 27.3833 145.221 29.15C145.188 30.5167 145.155 31.8333 145.121 33.1C145.121 34.3333 145.121 35.65 145.121 37.05C145.155 38.45 145.221 40.1 145.321 42H133.371Z" />
<path d="M129.016 29.5C128.383 29.5 127.383 29.5 126.016 29.5C124.649 29.5 123.066 29.5 121.266 29.5C119.499 29.5 117.683 29.5 115.816 29.5C113.983 29.5 112.283 29.5 110.716 29.5C109.883 29.5 109.099 29.5 108.366 29.5C107.633 29.5 107.016 29.5 106.516 29.5C106.749 30.8333 107.366 32 108.366 33C109.366 33.9667 110.899 34.45 112.966 34.45C114.333 34.45 115.633 34.1833 116.866 33.65C118.133 33.1167 119.133 32.3333 119.866 31.3C121.199 31.9333 122.616 32.55 124.116 33.15C125.616 33.7167 127.166 34.2833 128.766 34.85C127.799 37.0167 125.983 38.8333 123.316 40.3C120.683 41.7667 117.083 42.5 112.516 42.5C108.516 42.5 105.299 41.8667 102.866 40.6C100.433 39.3333 98.6494 37.6167 97.516 35.45C96.416 33.2833 95.866 30.8833 95.866 28.25C95.866 25.6833 96.416 23.3333 97.516 21.2C98.616 19.0667 100.383 17.3667 102.816 16.1C105.283 14.8333 108.516 14.2 112.516 14.2C116.283 14.2 119.449 14.8667 122.016 16.2C124.616 17.5333 126.516 19.35 127.716 21.65C128.949 23.95 129.383 26.5667 129.016 29.5ZM106.866 25.3H118.666C118.299 24.3 117.683 23.4667 116.816 22.8C115.949 22.1 114.749 21.75 113.216 21.75C111.516 21.75 110.133 22.0833 109.066 22.75C108.033 23.4167 107.299 24.2667 106.866 25.3Z" />
<path d="M91.5207 22C91.4874 25.3333 91.4707 28.75 91.4707 32.25C91.4707 35.7167 91.504 38.9667 91.5707 42H79.7707C79.804 38.9333 79.8374 35.6833 79.8707 32.25C79.904 28.7833 79.9207 25.3667 79.9207 22C79.9207 18.8 79.904 15.5667 79.8707 12.3C79.8374 9.03333 79.804 5.93333 79.7707 3H91.5707C91.5374 5.86667 91.504 8.96667 91.4707 12.3C91.4707 15.6 91.4874 18.8333 91.5207 22Z" />
<path d="M50.2351 26.65C48.9685 25.75 47.7351 24.9333 46.5351 24.2C45.3351 23.4333 44.0352 22.6833 42.6352 21.95C44.5352 19.55 46.7518 17.6667 49.2851 16.3C51.8185 14.9 55.0018 14.2 58.8352 14.2C63.9685 14.2 67.7685 15.3167 70.2352 17.55C72.7352 19.75 73.9852 23.15 73.9852 27.75V33.7C73.9852 34.8333 74.1185 35.6333 74.3851 36.1C74.6518 36.5667 75.1852 36.9 75.9852 37.1L75.7851 41.8C74.7518 41.9667 73.8352 42.0833 73.0352 42.15C72.2352 42.2167 71.1852 42.25 69.8852 42.25C68.2852 42.25 67.0018 42.05 66.0351 41.65C65.1018 41.2167 64.4018 40.65 63.9352 39.95C63.4685 39.25 63.1518 38.5 62.9852 37.7C62.8518 36.9 62.7852 36.1333 62.7852 35.4V34.15C61.8185 36.85 60.4185 38.8833 58.5852 40.25C56.7518 41.5833 54.3851 42.25 51.4851 42.25C44.7851 42.25 41.4352 39.6 41.4352 34.3C41.4352 32.1 42.1518 30.4 43.5852 29.2C45.0518 27.9667 47.2685 27.1167 50.2351 26.65ZM62.7852 30.2V28.9C61.6185 29.4667 60.3018 29.8667 58.8352 30.1C57.4018 30.3333 56.0685 30.55 54.8352 30.75C53.8018 30.95 53.0685 31.2167 52.6352 31.55C52.2352 31.85 52.0352 32.2167 52.0352 32.65C52.0352 33.6167 52.9018 34.1 54.6352 34.1C56.5018 34.1 58.1852 33.7333 59.6852 33C61.1852 32.2667 62.2185 31.3333 62.7852 30.2ZM62.7352 24.45C62.7352 24.0833 62.5018 23.75 62.0352 23.45C61.5685 23.15 60.8518 23 59.8852 23C58.1518 23 56.6352 23.3 55.3352 23.9C54.0352 24.4667 52.8852 25.3 51.8852 26.4C52.9518 26.2667 54.1018 26.1833 55.3352 26.15C56.6018 26.0833 57.9518 26.05 59.3852 26.05C60.7518 26.05 61.6518 25.8833 62.0852 25.55C62.5185 25.1833 62.7352 24.8167 62.7352 24.45Z" />
<path d="M31.1 5.7H44.5C41.9333 11.7333 39.3333 17.7833 36.7 23.85C34.1 29.8833 31.7833 35.9333 29.75 42H14.8C12.8 35.9333 10.4667 29.8833 7.8 23.85C5.16667 17.7833 2.56667 11.7333 0 5.7H13.9C15.1333 9.73333 16.5667 13.75 18.2 17.75C19.8333 21.75 21.2833 25.75 22.55 29.75C23.7833 25.75 25.2 21.75 26.8 17.75C28.4333 13.75 29.8667 9.73333 31.1 5.7Z" />
</svg>
